<svg xmlns="http://www.w3.org/2000/svg"  viewBox="0 0 48 48" width="48px" height="48px"><path className="icon-path" fill="black" d="M 24 3 C 12.413858 3 3 12.413866 3 24 C 3 35.586134 12.413858 45 24 45 C 35.586142 45 45 35.586134 45 24 C 45 12.413866 35.586142 3 24 3 z M 24 5 C 34.505263 5 43 13.494744 43 24 C 43 34.505256 34.505263 43 24 43 C 13.494737 43 5 34.505256 5 24 C 5 13.494744 13.494737 5 24 5 z M 24 12.185547 C 23.159 12.185547 22.474609 12.863313 22.474609 13.695312 C 22.474609 14.535312 23.159 15.220703 24 15.220703 C 24.85 15.220703 25.541016 14.535312 25.541016 13.695312 C 25.541016 12.863312 24.85 12.185547 24 12.185547 z M 24 17.935547 C 23.305 17.935547 22.818359 18.454312 22.818359 19.195312 L 22.818359 33.757812 C 22.818359 34.498812 23.304 35.017578 24 35.017578 C 24.696 35.017578 25.181641 34.498813 25.181641 33.757812 L 25.181641 19.193359 C 25.181641 18.452359 24.695 17.935547 24 17.935547 z"/></svg>